<?xml version="1.0" encoding="utf-8"?>
<svg id="svg2260" width="68.5mm" height="19.1mm" viewBox="27 -3 24 24" xmlns="http://www.w3.org/2000/svg">
  <defs id="defs2254">
    <rect id="XMLID_9_" x="158.53101" y="112.479" width="15.25" height="35.208"/>
  </defs>
  <g id="layer1" transform="translate(0,-277.9)">
    <g transform="matrix(0.26458333,0,0,0.26458333,0,253.34448)" id="g2069" style="fill:#ffffff;stroke:#ffffff"/>
    <g transform="matrix(0.26458333,0,0,0.26458333,0,253.34448)" id="g2081" style="fill:#ffffff;stroke:#ffffff"/>
    <g transform="matrix(0.26458333,0,0,0.26458333,0,253.34448)" id="g2153">
      <g id="g2141">
        <circle style="fill:none;stroke:#f4ba19;stroke-width:7" cx="147.396" cy="121.32" r="5.6680002" id="circle2137"/>
        <circle style="fill:none;stroke:#f4ba19;stroke-width:8" cx="147.228" cy="134.657" r="6.5479999" id="circle2139"/>
      </g>
      <g id="g2151">
        <defs id="defs2144">
          <rect id="rect2309" x="158.53101" y="112.479" width="15.25" height="35.208"/>
        </defs>
        <polyline style="fill:none;stroke:#f4ba19;stroke-width:8" clip-path="url(#XMLID_12_)" points="160.865,121.238 169.198,116.957     169.198,144.955   " id="polyline2149"/>
      </g>
    </g>
    <polyline transform="matrix(0.26458333,0,0,0.26458333,0,253.34448)" style="stroke-width: 10; stroke-linecap: round; stroke-linejoin: round; stroke: rgb(0, 0, 0);" points="125.531,120.188   110.506,102.508 132.448,107.854 " id="polyline2155"/>
    <path style="fill:#ffffff;stroke-width:0.26458332;stroke:#ffffff" d="m 49.746958,283.766 c -0.461698,-1.04828 -1.116277,-2.03306 -1.975379,-2.89216 -1.799431,-1.79943 -4.184121,-2.79082 -6.714596,-2.79082 -2.488141,0 -4.822031,0.96361 -6.571191,2.71304 l 1.461823,1.74651 c 0.04736,-0.0474 0.0971,-0.0926 0.14605,-0.13838 l 0.04842,0.0484 c 0.560652,-0.56065 1.202532,-1.01229 1.899444,-1.34673 0.950648,-0.43524 1.994429,-0.67998 3.015456,-0.67998 1.904736,0 3.700992,0.74772 5.05804,2.10503 0.381794,0.38206 0.708289,0.79798 0.986102,1.2356 h 2.645833" id="path2157"/>
    <path style="fill:#ffffff;stroke-width:0.26458332;stroke:#ffffff" d="m 49.569158,291.76965 h -2.742141 c -0.191823,0.25559 -0.400844,0.50191 -0.633148,0.73395 -2.728384,2.72812 -7.202223,2.69293 -9.973469,-0.0783 -1.767681,-1.76768 -2.484702,-4.26164 -1.9177,-6.67199 l -2.280179,-0.53631 c -0.754063,3.20543 0.195791,6.51907 2.541587,8.86486 3.684588,3.68459 9.644857,3.71978 13.286052,0.0781 0.71755,-0.71755 1.287727,-1.52691 1.718998,-2.39024" id="path2159"/>
    <path style="stroke-width: 0.264583; stroke: rgb(0, 0, 0);" d="m 49.746958,283.766 c -0.461698,-1.04828 -1.116277,-2.03306 -1.975379,-2.89216 -1.799431,-1.79943 -4.184121,-2.79082 -6.714596,-2.79082 -2.488141,0 -4.822031,0.96361 -6.571191,2.71304 l 1.461823,1.74651 c 0.04736,-0.0474 0.0971,-0.0926 0.14605,-0.13838 l 0.04842,0.0484 c 0.560652,-0.56065 1.202532,-1.01229 1.899444,-1.34673 0.950648,-0.43524 1.994429,-0.67998 3.015456,-0.67998 1.904736,0 3.700992,0.74772 5.05804,2.10503 0.381794,0.38206 0.708289,0.79798 0.986102,1.2356 h 2.645833" id="path2161"/>
    <path style="stroke-width: 0.264583; stroke: rgb(0, 0, 0);" d="m 49.569158,291.76965 h -2.742141 c -0.191823,0.25559 -0.400844,0.50191 -0.633148,0.73395 -2.728384,2.72812 -7.202223,2.69293 -9.973469,-0.0783 -1.767681,-1.76768 -2.484702,-4.26164 -1.9177,-6.67199 l -2.280179,-0.53631 c -0.754063,3.20543 0.195791,6.51907 2.541587,8.86486 3.684588,3.68459 9.644857,3.71978 13.286052,0.0781 0.71755,-0.71755 1.287727,-1.52691 1.718998,-2.39024" id="path2163"/>
  </g>
</svg>