<?xml version="1.0" encoding="UTF-8" standalone="no"?>
<!-- Created with Inkscape (http://www.inkscape.org/) -->

<svg
   xmlns:dc="http://purl.org/dc/elements/1.1/"
   xmlns:cc="http://creativecommons.org/ns#"
   xmlns:rdf="http://www.w3.org/1999/02/22-rdf-syntax-ns#"
   xmlns:svg="http://www.w3.org/2000/svg"
   xmlns="http://www.w3.org/2000/svg"
   xmlns:xlink="http://www.w3.org/1999/xlink"
   xmlns:sodipodi="http://sodipodi.sourceforge.net/DTD/sodipodi-0.dtd"
   xmlns:inkscape="http://www.inkscape.org/namespaces/inkscape"
   width="68.5mm"
   height="19.1mm"
   viewBox="0 0 68.5 19.1"
   version="1.1"
   id="svg2260"
   sodipodi:docname="everychat81-logo.svg"
   inkscape:version="0.92.1 r">
  <defs
     id="defs2254">
    <clipPath
       id="XMLID_12_">
      <use
         height="100%"
         width="100%"
         y="0"
         x="0"
         xlink:href="#XMLID_9_"
         id="use2146" />
    </clipPath>
    <rect
       id="XMLID_9_"
       x="158.53101"
       y="112.479"
       width="15.25"
       height="35.208" />
  </defs>
  <sodipodi:namedview
     id="base"
     pagecolor="#ffffff"
     bordercolor="#666666"
     borderopacity="1.0"
     inkscape:pageopacity="0.0"
     inkscape:pageshadow="2"
     inkscape:zoom="3.959798"
     inkscape:cx="93.777654"
     inkscape:cy="21.362079"
     inkscape:document-units="mm"
     inkscape:current-layer="layer1"
     showgrid="false"
     inkscape:window-width="1364"
     inkscape:window-height="752"
     inkscape:window-x="0"
     inkscape:window-y="14"
     inkscape:window-maximized="1"
     width="384mm" />
  <metadata
     id="metadata2257">
    <rdf:RDF>
      <cc:Work
         rdf:about="">
        <dc:format>image/svg+xml</dc:format>
        <dc:type
           rdf:resource="http://purl.org/dc/dcmitype/StillImage" />
        <dc:title></dc:title>
      </cc:Work>
    </rdf:RDF>
  </metadata>
  <g
     inkscape:label="Layer 1"
     inkscape:groupmode="layer"
     id="layer1"
     transform="translate(0,-277.9)">
    <g
       transform="matrix(0.26458333,0,0,0.26458333,0,253.34448)"
       id="g2069"
       style="fill:#ffffff;stroke:#ffffff">
      <path
         inkscape:connector-curvature="0"
         d="m 198.961,147.374 h -8.506 v -34.658 h 8.506 v 10.74 c 1.71,-1.101 3.698,-1.65 5.967,-1.65 1.219,0 2.361,0.22 3.428,0.66 1.05,0.457 1.938,1.092 2.666,1.904 0.728,0.829 1.295,1.794 1.701,2.895 0.406,1.117 0.609,2.361 0.609,3.732 v 0.787 15.59 h -8.48 v -12.848 -0.813 c 0,-1.117 -0.254,-1.98 -0.762,-2.59 -0.524,-0.609 -1.27,-0.914 -2.234,-0.914 -0.914,0 -1.625,0.296 -2.133,0.889 -0.508,0.609 -0.762,1.438 -0.762,2.488 v 1.016 z"
         id="path2063"
         style="fill:#ffffff;stroke:#ffffff" />
      <path
         inkscape:connector-curvature="0"
         d="m 241.688,135.999 v 11.375 h -8.506 v -10.258 -1.168 c 0,-1.608 -0.203,-2.776 -0.609,-3.504 -0.39,-0.711 -0.923,-1.253 -1.6,-1.625 -0.694,-0.39 -1.447,-0.584 -2.26,-0.584 -1.27,0 -2.354,0.448 -3.25,1.346 -0.897,0.931 -1.346,2.04 -1.346,3.326 0,1.286 0.457,2.361 1.371,3.225 0.896,0.88 2.014,1.32 3.352,1.32 0.795,0 1.727,-0.194 2.793,-0.584 v 8.709 c -0.982,0.22 -1.888,0.33 -2.717,0.33 -2.387,0 -4.604,-0.575 -6.652,-1.727 -2.065,-1.151 -3.674,-2.717 -4.824,-4.697 -1.168,-1.98 -1.752,-4.164 -1.752,-6.551 0,-2.37 0.584,-4.57 1.752,-6.602 1.15,-2.015 2.717,-3.605 4.697,-4.773 1.963,-1.168 4.13,-1.752 6.5,-1.752 2.387,0 4.578,0.567 6.576,1.701 1.98,1.134 3.563,2.7 4.748,4.697 1.15,1.997 1.727,4.155 1.727,6.475 z"
         id="path2065"
         style="fill:#ffffff;stroke:#ffffff" />
      <path
         inkscape:connector-curvature="0"
         d="m 253.719,122.212 h 4.672 v 8.48 h -4.672 v 4.037 1.143 c 0,1.27 0.271,2.2 0.813,2.793 0.524,0.575 1.38,0.863 2.564,0.863 0.102,0 0.533,-0.042 1.295,-0.127 v 8.379 c -0.711,0.085 -1.27,0.127 -1.676,0.127 -1.253,0 -2.438,-0.178 -3.555,-0.533 -1.134,-0.339 -2.175,-0.847 -3.123,-1.523 -0.948,-0.644 -1.786,-1.447 -2.514,-2.412 -0.593,-0.829 -1.058,-1.65 -1.396,-2.463 -0.321,-0.778 -0.55,-1.71 -0.686,-2.793 -0.136,-1.134 -0.203,-2.522 -0.203,-4.164 v -0.762 -18.459 h 8.48 v 7.414 z"
         id="path2067"
         style="fill:#ffffff;stroke:#ffffff" />
    </g>
    <g
       transform="matrix(0.26458333,0,0,0.26458333,0,253.34448)"
       id="g2081"
       style="fill:#ffffff;stroke:#ffffff">
      <path
         inkscape:connector-curvature="0"
         d="m 15.031,138.553 h 7.109 v 7.82 H 11.172 9.75 C 6.686,146.289 4.249,145.248 2.437,143.25 1.641,142.354 1.041,141.354 0.634,140.254 0.211,139.188 0,138.096 0,136.979 c 0,-3.098 1.405,-5.746 4.215,-7.947 -2.421,-2.064 -3.631,-4.578 -3.631,-7.541 0,-1.117 0.194,-2.234 0.584,-3.352 0.372,-1.066 0.931,-2.048 1.676,-2.945 0.745,-0.896 1.583,-1.607 2.514,-2.133 1.54,-0.896 3.479,-1.346 5.814,-1.346 h 0.635 10.334 v 7.82 H 15.032 13.66 c -0.965,0.051 -1.718,0.322 -2.26,0.813 -0.559,0.508 -0.838,1.16 -0.838,1.955 0,0.83 0.313,1.507 0.939,2.031 0.609,0.559 1.371,0.838 2.285,0.838 h 1.168 7.186 v 7.744 h -7.186 -0.736 c -0.999,0.034 -1.786,0.297 -2.361,0.787 -0.593,0.542 -0.889,1.219 -0.889,2.031 0,0.796 0.296,1.465 0.889,2.006 0.592,0.542 1.329,0.813 2.209,0.813 z"
         id="path2071"
         style="fill:#ffffff;stroke:#ffffff" />
      <path
         inkscape:connector-curvature="0"
         d="m 25.157,122.379 v -1.168 h 8.506 l -0.025,0.863 v 2.311 c 0,1.71 0.051,3.25 0.152,4.621 0.102,1.422 0.262,2.633 0.482,3.631 0.237,1.066 0.516,1.998 0.838,2.793 0.355,0.863 0.804,1.735 1.346,2.615 1.049,-1.607 1.777,-3.428 2.184,-5.459 0.406,-2.014 0.609,-4.756 0.609,-8.227 v -2.285 l -0.025,-0.863 h 8.506 v 1.168 c 0,2.455 -0.068,4.748 -0.203,6.881 -0.119,1.913 -0.33,3.623 -0.635,5.129 -0.322,1.49 -0.762,2.929 -1.32,4.316 -0.542,1.338 -1.193,2.615 -1.955,3.834 -0.762,1.202 -1.761,2.48 -2.996,3.834 h -8.354 c -1.439,-1.625 -2.607,-3.174 -3.504,-4.646 -0.88,-1.473 -1.591,-3.123 -2.133,-4.951 -0.525,-1.828 -0.906,-3.885 -1.143,-6.17 -0.22,-2.201 -0.33,-4.943 -0.33,-8.227 z"
         id="path2073"
         style="fill:#ffffff;stroke:#ffffff" />
      <path
         inkscape:connector-curvature="0"
         d="m 70.093,136.42 2.057,8.303 c -2.607,1.439 -5.408,2.158 -8.404,2.158 -2.742,0 -5.188,-0.566 -7.338,-1.701 -1.117,-0.592 -2.099,-1.282 -2.945,-2.069 -0.847,-0.787 -1.583,-1.68 -2.209,-2.679 -1.253,-2.014 -1.879,-4.24 -1.879,-6.678 0,-2.369 0.584,-4.545 1.752,-6.525 1.134,-1.963 2.717,-3.537 4.748,-4.723 2.014,-1.15 4.206,-1.727 6.576,-1.727 2.302,0 4.426,0.533 6.373,1.6 0.965,0.525 1.845,1.168 2.641,1.93 0.795,0.762 1.506,1.65 2.133,2.666 L 63.035,138.4 c 0.389,0.102 0.753,0.152 1.092,0.152 1.828,0.001 3.816,-0.71 5.966,-2.132 z m -11.679,-0.457 5.916,-6.424 c -0.66,-0.321 -1.32,-0.482 -1.98,-0.482 -0.813,0 -1.566,0.203 -2.26,0.609 -0.711,0.44 -1.261,1.008 -1.65,1.701 -0.423,0.729 -0.635,1.498 -0.635,2.311 -10e-4,0.728 0.202,1.49 0.609,2.285 z"
         id="path2075"
         style="fill:#ffffff;stroke:#ffffff" />
      <path
         inkscape:connector-curvature="0"
         d="m 83.571,146.373 h -8.48 v -11.73 -1.219 c 0,-1.455 0.135,-2.784 0.406,-3.986 0.288,-1.286 0.711,-2.378 1.27,-3.275 0.609,-0.981 1.346,-1.854 2.209,-2.615 2.099,-1.845 4.629,-2.768 7.592,-2.768 0.271,0 0.66,0.025 1.168,0.076 v 8.607 c -0.508,-0.169 -0.948,-0.254 -1.32,-0.254 -1.236,0 -2.082,0.602 -2.539,1.803 -0.203,0.508 -0.305,1.49 -0.305,2.945 v 0.609 11.807 z"
         id="path2077"
         style="fill:#ffffff;stroke:#ffffff" />
      <path
         inkscape:connector-curvature="0"
         d="m 90.502,135.1 v -13.889 h 8.48 v 11.273 0.889 c 0,1.287 0.245,2.227 0.736,2.818 0.491,0.609 1.227,0.914 2.209,0.914 1.049,0 1.803,-0.305 2.26,-0.914 0.457,-0.609 0.686,-1.616 0.686,-3.021 v -0.813 -11.146 h 8.48 v 19.551 1.777 c 0,2.133 -0.237,3.91 -0.711,5.332 -0.474,1.455 -1.287,2.826 -2.438,4.113 -0.88,1.032 -1.854,1.87 -2.92,2.514 -1.083,0.66 -2.302,1.143 -3.656,1.447 -1.304,0.321 -2.793,0.482 -4.469,0.482 -1.862,0 -3.716,-0.212 -5.561,-0.635 v -7.541 c 1.625,0.609 3.157,0.914 4.596,0.914 1.862,0 3.317,-0.424 4.367,-1.27 1.066,-0.863 1.836,-2.184 2.311,-3.961 -1.27,0.593 -2.345,1.016 -3.225,1.27 -0.813,0.221 -1.693,0.33 -2.641,0.33 -2.708,0 -4.799,-0.846 -6.271,-2.539 -1.49,-1.658 -2.234,-4.054 -2.234,-7.186 V 135.1 Z"
         id="path2079"
         style="fill:#ffffff;stroke:#ffffff" />
    </g>
    <g
       transform="matrix(0.26458333,0,0,0.26458333,0,253.34448)"
       id="g2153">
      <g
         id="g2141">
        <circle
           style="fill:none;stroke:#f4ba19;stroke-width:7"
           cx="147.396"
           cy="121.32"
           r="5.6680002"
           id="circle2137" />
        <circle
           style="fill:none;stroke:#f4ba19;stroke-width:8"
           cx="147.228"
           cy="134.657"
           r="6.5479999"
           id="circle2139" />
      </g>
      <g
         id="g2151">
        <defs
           id="defs2144">
          <rect
             id="rect2309"
             x="158.53101"
             y="112.479"
             width="15.25"
             height="35.208" />
        </defs>
        <clipPath
           id="clipPath2244">
          <use
             height="100%"
             width="100%"
             y="0"
             x="0"
             xlink:href="#XMLID_9_"
             id="use2242" />
        </clipPath>
        <polyline
           style="fill:none;stroke:#f4ba19;stroke-width:8"
           clip-path="url(#XMLID_12_)"
           points="160.865,121.238 169.198,116.957     169.198,144.955   "
           id="polyline2149" />
      </g>
    </g>
    <polyline
       transform="matrix(0.26458333,0,0,0.26458333,0,253.34448)"
       style="fill:#ffffff;stroke:#ffffff;stroke-width:10;stroke-linecap:round;stroke-linejoin:round"
       points="125.531,120.188   110.506,102.508 132.448,107.854 "
       id="polyline2155" />
    <path
       inkscape:connector-curvature="0"
       style="fill:#ffffff;stroke-width:0.26458332;stroke:#ffffff"
       d="m 49.746958,283.766 c -0.461698,-1.04828 -1.116277,-2.03306 -1.975379,-2.89216 -1.799431,-1.79943 -4.184121,-2.79082 -6.714596,-2.79082 -2.488141,0 -4.822031,0.96361 -6.571191,2.71304 l 1.461823,1.74651 c 0.04736,-0.0474 0.0971,-0.0926 0.14605,-0.13838 l 0.04842,0.0484 c 0.560652,-0.56065 1.202532,-1.01229 1.899444,-1.34673 0.950648,-0.43524 1.994429,-0.67998 3.015456,-0.67998 1.904736,0 3.700992,0.74772 5.05804,2.10503 0.381794,0.38206 0.708289,0.79798 0.986102,1.2356 h 2.645833"
       id="path2157" />
    <path
       inkscape:connector-curvature="0"
       style="fill:#ffffff;stroke-width:0.26458332;stroke:#ffffff"
       d="m 49.569158,291.76965 h -2.742141 c -0.191823,0.25559 -0.400844,0.50191 -0.633148,0.73395 -2.728384,2.72812 -7.202223,2.69293 -9.973469,-0.0783 -1.767681,-1.76768 -2.484702,-4.26164 -1.9177,-6.67199 l -2.280179,-0.53631 c -0.754063,3.20543 0.195791,6.51907 2.541587,8.86486 3.684588,3.68459 9.644857,3.71978 13.286052,0.0781 0.71755,-0.71755 1.287727,-1.52691 1.718998,-2.39024"
       id="path2159" />
    <path
       inkscape:connector-curvature="0"
       style="fill:#ffffff;stroke:#ffffff;stroke-width:0.26458332"
       d="m 49.746958,283.766 c -0.461698,-1.04828 -1.116277,-2.03306 -1.975379,-2.89216 -1.799431,-1.79943 -4.184121,-2.79082 -6.714596,-2.79082 -2.488141,0 -4.822031,0.96361 -6.571191,2.71304 l 1.461823,1.74651 c 0.04736,-0.0474 0.0971,-0.0926 0.14605,-0.13838 l 0.04842,0.0484 c 0.560652,-0.56065 1.202532,-1.01229 1.899444,-1.34673 0.950648,-0.43524 1.994429,-0.67998 3.015456,-0.67998 1.904736,0 3.700992,0.74772 5.05804,2.10503 0.381794,0.38206 0.708289,0.79798 0.986102,1.2356 h 2.645833"
       id="path2161" />
    <path
       inkscape:connector-curvature="0"
       style="fill:#ffffff;stroke:#ffffff;stroke-width:0.26458332"
       d="m 49.569158,291.76965 h -2.742141 c -0.191823,0.25559 -0.400844,0.50191 -0.633148,0.73395 -2.728384,2.72812 -7.202223,2.69293 -9.973469,-0.0783 -1.767681,-1.76768 -2.484702,-4.26164 -1.9177,-6.67199 l -2.280179,-0.53631 c -0.754063,3.20543 0.195791,6.51907 2.541587,8.86486 3.684588,3.68459 9.644857,3.71978 13.286052,0.0781 0.71755,-0.71755 1.287727,-1.52691 1.718998,-2.39024"
       id="path2163" />
  </g>
</svg>
